<?xml version="1.0" standalone="no"?>
<!DOCTYPE svg PUBLIC "-//W3C//DTD SVG 20010904//EN"
 "http://www.w3.org/TR/2001/REC-SVG-20010904/DTD/svg10.dtd">
<svg version="1.0" xmlns="http://www.w3.org/2000/svg"
 width="260.000000pt" height="331.000000pt" viewBox="0 0 260.000000 331.000000"
 preserveAspectRatio="xMidYMid meet">

<g transform="translate(0.000000,331.000000) scale(0.100000,-0.100000)"
fill="#000000" stroke="none">
<path d="M452 3233 c11 -84 3 -245 -17 -330 -18 -76 -67 -192 -200 -473 -153
-322 -188 -447 -187 -665 0 -235 76 -406 252 -568 119 -111 244 -183 498 -286
198 -81 255 -109 332 -161 61 -41 134 -116 152 -155 l11 -25 20 32 c43 74 140
154 254 212 29 14 130 58 225 97 254 103 379 175 498 286 176 162 252 333 252
568 1 218 -34 343 -187 665 -133 281 -182 397 -200 473 -20 85 -28 246 -17
330 4 37 5 67 0 67 -16 0 -90 -74 -112 -114 -13 -23 -31 -65 -41 -93 l-17 -53
-62 0 c-34 0 -87 -7 -119 -15 -53 -14 -128 -53 -141 -73 -3 -5 32 -12 77 -15
178 -13 299 -94 349 -234 48 -136 -26 -289 -165 -340 -18 -6 -59 -12 -92 -12
-70 -1 -128 26 -160 75 -47 74 -45 72 -39 29 12 -77 60 -137 123 -155 191 -53
381 96 383 300 0 38 2 70 4 70 9 0 66 -125 89 -194 54 -160 74 -324 56 -446
-8 -53 -25 -103 -57 -168 -99 -202 -290 -332 -489 -332 -192 0 -295 183 -205
360 50 99 125 154 335 245 71 31 150 72 175 90 53 39 105 107 125 166 23 63
18 61 -15 -8 -48 -97 -106 -138 -322 -224 -253 -100 -344 -182 -393 -353 -30
-103 -8 -197 67 -282 31 -35 32 -37 13 -51 -53 -41 -161 -83 -210 -83 -49 0
-157 42 -210 83 -19 14 -18 16 13 51 96 109 105 234 29 379 -56 107 -150 175
-355 256 -216 86 -272 125 -318 220 -15 33 -29 59 -31 57 -8 -7 30 -91 59
-132 47 -65 106 -104 253 -169 71 -31 155 -72 186 -91 212 -128 246 -381 66
-484 -129 -74 -343 -15 -493 136 -130 131 -192 294 -180 475 10 150 56 321
118 442 l33 62 5 -85 c7 -98 26 -143 90 -209 77 -79 187 -110 291 -81 63 18
111 78 123 155 6 43 8 45 -39 -29 -32 -49 -90 -76 -160 -75 -71 1 -108 13
-168 55 -95 67 -129 214 -77 328 57 124 204 206 372 206 56 0 56 9 -3 46 -51
32 -138 54 -215 54 l-62 0 -17 53 c-10 28 -28 70 -41 93 -22 40 -96 114 -112
114 -5 0 -4 -30 0 -67z"/>
<path d="M1133 3014 c-50 -25 -108 -94 -132 -158 -27 -73 -27 -153 0 -258 56
-214 -27 -351 -212 -352 l-69 -1 42 -18 c87 -37 208 -47 271 -22 14 6 17 1 17
-31 0 -72 64 -153 134 -170 29 -7 29 -7 13 17 -24 33 -21 106 7 224 34 142 40
201 23 255 l-14 45 82 0 82 0 -14 -45 c-17 -54 -11 -113 23 -255 28 -118 31
-191 7 -224 -16 -24 -16 -24 13 -17 70 17 134 98 134 170 0 32 3 37 18 31 62
-25 183 -15 270 22 l42 18 -69 1 c-185 1 -268 138 -212 352 12 45 21 108 21
141 0 150 -109 291 -225 291 -38 0 -75 -14 -75 -29 0 -5 12 -12 28 -16 60 -15
100 -61 81 -96 -4 -9 -23 -19 -40 -23 -34 -7 -59 -23 -59 -38 0 -5 12 0 26 11
15 12 32 21 39 21 7 0 24 -9 39 -21 23 -18 26 -28 26 -77 0 -115 -67 -202
-155 -202 -88 0 -155 87 -155 202 0 49 3 59 26 77 15 12 32 21 39 21 7 0 24
-9 39 -21 14 -11 26 -16 26 -11 0 15 -25 31 -59 38 -77 16 -49 97 42 119 32 8
35 20 8 35 -29 15 -91 12 -128 -6z"/>
<path d="M1191 2801 c-7 -5 -10 -14 -7 -20 9 -14 36 -14 56 -1 13 9 13 11 0
20 -18 12 -31 12 -49 1z"/>
<path d="M1271 2794 c0 -11 3 -14 6 -6 3 7 2 16 -1 19 -3 4 -6 -2 -5 -13z"/>
<path d="M1311 2794 c0 -11 3 -14 6 -6 3 7 2 16 -1 19 -3 4 -6 -2 -5 -13z"/>
<path d="M1350 2800 c-13 -9 -13 -11 0 -20 20 -13 47 -13 56 1 7 11 -12 29
-31 29 -5 0 -17 -5 -25 -10z"/>
<path d="M1288 2703 c7 -3 16 -2 19 1 4 3 -2 6 -13 5 -11 0 -14 -3 -6 -6z"/>
<path d="M1260 2650 c0 -5 13 -10 29 -10 17 0 33 5 36 10 4 6 -8 10 -29 10
-20 0 -36 -4 -36 -10z"/>
<path d="M585 473 c-83 -44 -119 -108 -119 -213 0 -148 83 -232 229 -232 53 0
135 22 135 36 0 3 -7 21 -16 40 -16 33 -18 34 -41 19 -37 -25 -124 -21 -163 7
-61 44 -80 148 -37 210 48 71 117 91 186 55 l31 -15 15 36 c8 20 15 38 15 41
0 2 -16 11 -35 19 -46 19 -161 18 -200 -3z"/>
<path d="M1221 335 c-57 -85 -106 -155 -108 -155 -2 0 -49 68 -103 152 l-100
152 0 -227 0 -227 40 0 40 0 0 97 0 97 61 -94 61 -94 51 82 c29 45 57 89 64
99 10 15 12 -2 12 -84 l1 -103 45 0 45 0 0 230 c0 127 -1 230 -2 230 -2 0 -50
-70 -107 -155z"/>
<path d="M1486 266 c-53 -123 -96 -227 -96 -230 0 -3 18 -6 39 -6 37 0 40 2
57 45 l17 45 77 0 77 0 17 -45 c18 -45 18 -45 66 -45 l49 0 -35 83 c-106 247
-157 363 -164 370 -4 5 -51 -93 -104 -217z m122 -23 l20 -53 -44 0 c-24 0 -44
4 -44 9 0 14 40 104 44 100 2 -2 13 -28 24 -56z"/>
<path d="M1936 475 c-57 -20 -87 -55 -93 -106 -6 -64 22 -103 100 -139 81 -36
104 -61 89 -95 -16 -35 -72 -43 -132 -18 l-46 20 -18 -31 c-17 -29 -17 -31 0
-43 31 -23 96 -35 158 -31 53 4 63 8 92 41 29 31 34 44 34 86 0 63 -26 96 -99
128 -69 31 -91 49 -91 79 0 43 55 55 128 30 39 -14 40 -14 51 10 17 37 14 44
-21 58 -54 22 -110 26 -152 11z"/>
</g>
</svg>
