<svg id="visual" viewBox="0 0 350 160" width="350" height="160" xmlns="http://www.w3.org/2000/svg" xmlns:xlink="http://www.w3.org/1999/xlink" version="1.1"><path d="M0 36L7.3 40.8C14.7 45.7 29.3 55.3 44 61.8C58.7 68.3 73.3 71.7 87.8 74.7C102.3 77.7 116.7 80.3 131.2 75C145.7 69.7 160.3 56.3 175 51.7C189.7 47 204.3 51 219 55.7C233.7 60.3 248.3 65.7 262.8 74C277.3 82.3 291.7 93.7 306.2 85.7C320.7 77.7 335.3 50.3 342.7 36.7L350 23L350 0L342.7 0C335.3 0 320.7 0 306.2 0C291.7 0 277.3 0 262.8 0C248.3 0 233.7 0 219 0C204.3 0 189.7 0 175 0C160.3 0 145.7 0 131.2 0C116.7 0 102.3 0 87.8 0C73.3 0 58.7 0 44 0C29.3 0 14.7 0 7.3 0L0 0Z" fill="#679ef8"></path><path d="M0 137L7.3 136C14.7 135 29.3 133 44 125.8C58.7 118.7 73.3 106.3 87.8 101C102.3 95.7 116.7 97.3 131.2 104.5C145.7 111.7 160.3 124.3 175 124.3C189.7 124.3 204.3 111.7 219 107.3C233.7 103 248.3 107 262.8 112.5C277.3 118 291.7 125 306.2 124.3C320.7 123.7 335.3 115.3 342.7 111.2L350 107L350 21L342.7 34.7C335.3 48.3 320.7 75.7 306.2 83.7C291.7 91.7 277.3 80.3 262.8 72C248.3 63.7 233.7 58.3 219 53.7C204.3 49 189.7 45 175 49.7C160.3 54.3 145.7 67.7 131.2 73C116.7 78.3 102.3 75.7 87.8 72.7C73.3 69.7 58.7 66.3 44 59.8C29.3 53.3 14.7 43.7 7.3 38.8L0 34Z" fill="#3880f3"></path><path d="M0 150L7.3 149.5C14.7 149 29.3 148 44 147.7C58.7 147.3 73.3 147.7 87.8 145C102.3 142.3 116.7 136.7 131.2 137.2C145.7 137.7 160.3 144.3 175 145.7C189.7 147 204.3 143 219 140.3C233.7 137.7 248.3 136.3 262.8 137.8C277.3 139.3 291.7 143.7 306.2 144.8C320.7 146 335.3 144 342.7 143L350 142L350 105L342.7 109.2C335.3 113.3 320.7 121.7 306.2 122.3C291.7 123 277.3 116 262.8 110.5C248.3 105 233.7 101 219 105.3C204.3 109.7 189.7 122.3 175 122.3C160.3 122.3 145.7 109.7 131.2 102.5C116.7 95.3 102.3 93.7 87.8 99C73.3 104.3 58.7 116.7 44 123.8C29.3 131 14.7 133 7.3 134L0 135Z" fill="#0b66da"></path><path d="M0 161L7.3 161C14.7 161 29.3 161 44 161C58.7 161 73.3 161 87.8 161C102.3 161 116.7 161 131.2 161C145.7 161 160.3 161 175 161C189.7 161 204.3 161 219 161C233.7 161 248.3 161 262.8 161C277.3 161 291.7 161 306.2 161C320.7 161 335.3 161 342.7 161L350 161L350 140L342.7 141C335.3 142 320.7 144 306.2 142.8C291.7 141.7 277.3 137.3 262.8 135.8C248.3 134.3 233.7 135.7 219 138.3C204.3 141 189.7 145 175 143.7C160.3 142.3 145.7 135.7 131.2 135.2C116.7 134.7 102.3 140.3 87.8 143C73.3 145.7 58.7 145.3 44 145.7C29.3 146 14.7 147 7.3 147.5L0 148Z" fill="#0053b0"></path></svg>