<svg id="visual" viewBox="0 0 900 600" width="900" height="600" xmlns="http://www.w3.org/2000/svg" xmlns:xlink="http://www.w3.org/1999/xlink" version="1.1"><rect x="0" y="0" width="900" height="600" fill="#ffffff"></rect><path d="M743 600L737.3 590.8C731.7 581.7 720.3 563.3 717.8 545.2C715.3 527 721.7 509 737.3 490.8C753 472.7 778 454.3 784.7 436.2C791.3 418 779.7 400 781 381.8C782.3 363.7 796.7 345.3 789.5 327.2C782.3 309 753.7 291 745.3 272.8C737 254.7 749 236.3 756.3 218.2C763.7 200 766.3 182 772.2 163.8C778 145.7 787 127.3 796 109.2C805 91 814 73 803.5 54.8C793 36.7 763 18.3 748 9.2L733 0L900 0L900 9.2C900 18.3 900 36.7 900 54.8C900 73 900 91 900 109.2C900 127.3 900 145.7 900 163.8C900 182 900 200 900 218.2C900 236.3 900 254.7 900 272.8C900 291 900 309 900 327.2C900 345.3 900 363.7 900 381.8C900 400 900 418 900 436.2C900 454.3 900 472.7 900 490.8C900 509 900 527 900 545.2C900 563.3 900 581.7 900 590.8L900 600Z" fill="#f6f6f6" stroke-linecap="round" stroke-linejoin="miter"></path></svg>