<svg id="visual" viewBox="0 0 900 600" width="900" height="600" xmlns="http://www.w3.org/2000/svg" xmlns:xlink="http://www.w3.org/1999/xlink" version="1.1"><rect x="0" y="0" width="900" height="600" fill="#ffffff"></rect><path d="M0 531L8.3 530.5C16.7 530 33.3 529 50 524.7C66.7 520.3 83.3 512.7 100 506.7C116.7 500.7 133.3 496.3 150 499.3C166.7 502.3 183.3 512.7 200 518.8C216.7 525 233.3 527 250 529C266.7 531 283.3 533 300 532.5C316.7 532 333.3 529 350 525C366.7 521 383.3 516 400 510.2C416.7 504.3 433.3 497.7 450 501C466.7 504.3 483.3 517.7 500 522.8C516.7 528 533.3 525 550 518C566.7 511 583.3 500 600 496C616.7 492 633.3 495 650 497C666.7 499 683.3 500 700 499.2C716.7 498.3 733.3 495.7 750 500.2C766.7 504.7 783.3 516.3 800 520.2C816.7 524 833.3 520 850 514.7C866.7 509.3 883.3 502.7 891.7 499.3L900 496L900 601L891.7 601C883.3 601 866.7 601 850 601C833.3 601 816.7 601 800 601C783.3 601 766.7 601 750 601C733.3 601 716.7 601 700 601C683.3 601 666.7 601 650 601C633.3 601 616.7 601 600 601C583.3 601 566.7 601 550 601C533.3 601 516.7 601 500 601C483.3 601 466.7 601 450 601C433.3 601 416.7 601 400 601C383.3 601 366.7 601 350 601C333.3 601 316.7 601 300 601C283.3 601 266.7 601 250 601C233.3 601 216.7 601 200 601C183.3 601 166.7 601 150 601C133.3 601 116.7 601 100 601C83.3 601 66.7 601 50 601C33.3 601 16.7 601 8.3 601L0 601Z" fill="#e3f2ff" stroke-linecap="round" stroke-linejoin="miter"></path></svg>