<svg id="visual" viewBox="0 0 350 160" width="350" height="160" xmlns="http://www.w3.org/2000/svg" xmlns:xlink="http://www.w3.org/1999/xlink" version="1.1"><rect x="0" y="0" width="350" height="160" fill="#1570EF"></rect><path d="M0 76L7.3 77.5C14.7 79 29.3 82 44 79.7C58.7 77.3 73.3 69.7 87.8 65.2C102.3 60.7 116.7 59.3 131.2 61.3C145.7 63.3 160.3 68.7 175 71.2C189.7 73.7 204.3 73.3 219 70C233.7 66.7 248.3 60.3 262.8 54.8C277.3 49.3 291.7 44.7 306.2 42.5C320.7 40.3 335.3 40.7 342.7 40.8L350 41L350 0L342.7 0C335.3 0 320.7 0 306.2 0C291.7 0 277.3 0 262.8 0C248.3 0 233.7 0 219 0C204.3 0 189.7 0 175 0C160.3 0 145.7 0 131.2 0C116.7 0 102.3 0 87.8 0C73.3 0 58.7 0 44 0C29.3 0 14.7 0 7.3 0L0 0Z" fill="#65C7F7" stroke-linecap="round" stroke-linejoin="miter"></path></svg>