<svg id="visual" viewBox="0 0 900 600" width="900" height="600" xmlns="http://www.w3.org/2000/svg" xmlns:xlink="http://www.w3.org/1999/xlink" version="1.1"><rect x="0" y="0" width="900" height="600" fill="#475467"></rect><path d="M0 351L21.5 344.5C43 338 86 325 128.8 316.3C171.7 307.7 214.3 303.3 257.2 311.3C300 319.3 343 339.7 385.8 349.5C428.7 359.3 471.3 358.7 514.2 359.2C557 359.7 600 361.3 642.8 362.3C685.7 363.3 728.3 363.7 771.2 363C814 362.3 857 360.7 878.5 359.8L900 359L900 601L878.5 601C857 601 814 601 771.2 601C728.3 601 685.7 601 642.8 601C600 601 557 601 514.2 601C471.3 601 428.7 601 385.8 601C343 601 300 601 257.2 601C214.3 601 171.7 601 128.8 601C86 601 43 601 21.5 601L0 601Z" fill="#475467"></path><path d="M0 349L21.5 356.8C43 364.7 86 380.3 128.8 387.5C171.7 394.7 214.3 393.3 257.2 387C300 380.7 343 369.3 385.8 365C428.7 360.7 471.3 363.3 514.2 370.7C557 378 600 390 642.8 386.2C685.7 382.3 728.3 362.7 771.2 358.2C814 353.7 857 364.3 878.5 369.7L900 375L900 601L878.5 601C857 601 814 601 771.2 601C728.3 601 685.7 601 642.8 601C600 601 557 601 514.2 601C471.3 601 428.7 601 385.8 601C343 601 300 601 257.2 601C214.3 601 171.7 601 128.8 601C86 601 43 601 21.5 601L0 601Z" fill="#677283"></path><path d="M0 426L21.5 432C43 438 86 450 128.8 449.8C171.7 449.7 214.3 437.3 257.2 427.5C300 417.7 343 410.3 385.8 408C428.7 405.7 471.3 408.3 514.2 418.5C557 428.7 600 446.3 642.8 449.5C685.7 452.7 728.3 441.3 771.2 434.8C814 428.3 857 426.7 878.5 425.8L900 425L900 601L878.5 601C857 601 814 601 771.2 601C728.3 601 685.7 601 642.8 601C600 601 557 601 514.2 601C471.3 601 428.7 601 385.8 601C343 601 300 601 257.2 601C214.3 601 171.7 601 128.8 601C86 601 43 601 21.5 601L0 601Z" fill="#8992a0"></path><path d="M0 484L21.5 485.5C43 487 86 490 128.8 489.2C171.7 488.3 214.3 483.7 257.2 485C300 486.3 343 493.7 385.8 496.2C428.7 498.7 471.3 496.3 514.2 489.3C557 482.3 600 470.7 642.8 470C685.7 469.3 728.3 479.7 771.2 488C814 496.3 857 502.7 878.5 505.8L900 509L900 601L878.5 601C857 601 814 601 771.2 601C728.3 601 685.7 601 642.8 601C600 601 557 601 514.2 601C471.3 601 428.7 601 385.8 601C343 601 300 601 257.2 601C214.3 601 171.7 601 128.8 601C86 601 43 601 21.5 601L0 601Z" fill="#acb3be"></path><path d="M0 532L21.5 529.5C43 527 86 522 128.8 520.7C171.7 519.3 214.3 521.7 257.2 526.3C300 531 343 538 385.8 536.8C428.7 535.7 471.3 526.3 514.2 529.2C557 532 600 547 642.8 549.2C685.7 551.3 728.3 540.7 771.2 532.2C814 523.7 857 517.3 878.5 514.2L900 511L900 601L878.5 601C857 601 814 601 771.2 601C728.3 601 685.7 601 642.8 601C600 601 557 601 514.2 601C471.3 601 428.7 601 385.8 601C343 601 300 601 257.2 601C214.3 601 171.7 601 128.8 601C86 601 43 601 21.5 601L0 601Z" fill="#d0d5dd"></path></svg>