<svg id="visual" viewBox="0 0 350 160" width="350" height="160" xmlns="http://www.w3.org/2000/svg" xmlns:xlink="http://www.w3.org/1999/xlink" version="1.1"><rect x="0" y="0" width="350" height="160" fill="#1570EF"></rect><path d="M0 45L9.7 45.2C19.3 45.3 38.7 45.7 58.2 43.2C77.7 40.7 97.3 35.3 116.8 36.5C136.3 37.7 155.7 45.3 175 45.5C194.3 45.7 213.7 38.3 233.2 34.3C252.7 30.3 272.3 29.7 291.8 30.7C311.3 31.7 330.7 34.3 340.3 35.7L350 37L350 0L340.3 0C330.7 0 311.3 0 291.8 0C272.3 0 252.7 0 233.2 0C213.7 0 194.3 0 175 0C155.7 0 136.3 0 116.8 0C97.3 0 77.7 0 58.2 0C38.7 0 19.3 0 9.7 0L0 0Z" fill="#65C7F7" stroke-linecap="round" stroke-linejoin="miter"></path></svg>