<svg id="visual" viewBox="0 0 960 540" width="960" height="540" xmlns="http://www.w3.org/2000/svg" xmlns:xlink="http://www.w3.org/1999/xlink" version="1.1"><rect x="0" y="0" width="960" height="540" fill="#1570EF"></rect><path d="M0 258L20 263.2C40 268.3 80 278.7 120 270.8C160 263 200 237 240 222C280 207 320 203 360 209.8C400 216.7 440 234.3 480 242.7C520 251 560 250 600 239C640 228 680 207 720 188.2C760 169.3 800 152.7 840 145.2C880 137.7 920 139.3 940 140.2L960 141L960 0L940 0C920 0 880 0 840 0C800 0 760 0 720 0C680 0 640 0 600 0C560 0 520 0 480 0C440 0 400 0 360 0C320 0 280 0 240 0C200 0 160 0 120 0C80 0 40 0 20 0L0 0Z" fill="#65C7F7" stroke-linecap="round" stroke-linejoin="miter"></path></svg>