<svg id="visual" viewBox="0 0 1610 1050" width="1610" height="1050" xmlns="http://www.w3.org/2000/svg" xmlns:xlink="http://www.w3.org/1999/xlink" version="1.1"><path d="M0 232L33.5 240.8C67 249.7 134 267.3 201.2 267.3C268.3 267.3 335.7 249.7 402.8 254.8C470 260 537 288 604 302C671 316 738 316 805 295C872 274 939 232 1006.2 207.5C1073.3 183 1140.7 176 1207.8 200.5C1275 225 1342 281 1409 282.8C1476 284.7 1543 232.3 1576.5 206.2L1610 180L1610 0L1576.5 0C1543 0 1476 0 1409 0C1342 0 1275 0 1207.8 0C1140.7 0 1073.3 0 1006.2 0C939 0 872 0 805 0C738 0 671 0 604 0C537 0 470 0 402.8 0C335.7 0 268.3 0 201.2 0C134 0 67 0 33.5 0L0 0Z" fill="#f1f5f9"></path><path d="M0 316L33.5 323C67 330 134 344 201.2 351C268.3 358 335.7 358 402.8 363.3C470 368.7 537 379.3 604 389.8C671 400.3 738 410.7 805 398.3C872 386 939 351 1006.2 330C1073.3 309 1140.7 302 1207.8 317.8C1275 333.7 1342 372.3 1409 374.2C1476 376 1543 341 1576.5 323.5L1610 306L1610 178L1576.5 204.2C1543 230.3 1476 282.7 1409 280.8C1342 279 1275 223 1207.8 198.5C1140.7 174 1073.3 181 1006.2 205.5C939 230 872 272 805 293C738 314 671 314 604 300C537 286 470 258 402.8 252.8C335.7 247.7 268.3 265.3 201.2 265.3C134 265.3 67 247.7 33.5 238.8L0 230Z" fill="#dfecf9"></path><path d="M0 652L33.5 641.5C67 631 134 610 201.2 615.3C268.3 620.7 335.7 652.3 402.8 666.3C470 680.3 537 676.7 604 666.2C671 655.7 738 638.3 805 626.2C872 614 939 607 1006.2 601.7C1073.3 596.3 1140.7 592.7 1207.8 610.2C1275 627.7 1342 666.3 1409 675.2C1476 684 1543 663 1576.5 652.5L1610 642L1610 304L1576.5 321.5C1543 339 1476 374 1409 372.2C1342 370.3 1275 331.7 1207.8 315.8C1140.7 300 1073.3 307 1006.2 328C939 349 872 384 805 396.3C738 408.7 671 398.3 604 387.8C537 377.3 470 366.7 402.8 361.3C335.7 356 268.3 356 201.2 349C134 342 67 328 33.5 321L0 314Z" fill="#cee2f9"></path><path d="M0 778L33.5 767.5C67 757 134 736 201.2 736C268.3 736 335.7 757 402.8 769.3C470 781.7 537 785.3 604 783.7C671 782 738 775 805 768C872 761 939 754 1006.2 747C1073.3 740 1140.7 733 1207.8 745.2C1275 757.3 1342 788.7 1409 797.3C1476 806 1543 792 1576.5 785L1610 778L1610 640L1576.5 650.5C1543 661 1476 682 1409 673.2C1342 664.3 1275 625.7 1207.8 608.2C1140.7 590.7 1073.3 594.3 1006.2 599.7C939 605 872 612 805 624.2C738 636.3 671 653.7 604 664.2C537 674.7 470 678.3 402.8 664.3C335.7 650.3 268.3 618.7 201.2 613.3C134 608 67 629 33.5 639.5L0 650Z" fill="#bed8f9"></path><path d="M0 925L33.5 923.3C67 921.7 134 918.3 201.2 927.2C268.3 936 335.7 957 402.8 965.7C470 974.3 537 970.7 604 961.8C671 953 738 939 805 935.5C872 932 939 939 1006.2 937.3C1073.3 935.7 1140.7 925.3 1207.8 928.8C1275 932.3 1342 949.7 1409 951.3C1476 953 1543 939 1576.5 932L1610 925L1610 776L1576.5 783C1543 790 1476 804 1409 795.3C1342 786.7 1275 755.3 1207.8 743.2C1140.7 731 1073.3 738 1006.2 745C939 752 872 759 805 766C738 773 671 780 604 781.7C537 783.3 470 779.7 402.8 767.3C335.7 755 268.3 734 201.2 734C134 734 67 755 33.5 765.5L0 776Z" fill="#aecef9"></path><path d="M0 1051L33.5 1051C67 1051 134 1051 201.2 1051C268.3 1051 335.7 1051 402.8 1051C470 1051 537 1051 604 1051C671 1051 738 1051 805 1051C872 1051 939 1051 1006.2 1051C1073.3 1051 1140.7 1051 1207.8 1051C1275 1051 1342 1051 1409 1051C1476 1051 1543 1051 1576.5 1051L1610 1051L1610 923L1576.5 930C1543 937 1476 951 1409 949.3C1342 947.7 1275 930.3 1207.8 926.8C1140.7 923.3 1073.3 933.7 1006.2 935.3C939 937 872 930 805 933.5C738 937 671 951 604 959.8C537 968.7 470 972.3 402.8 963.7C335.7 955 268.3 934 201.2 925.2C134 916.3 67 919.7 33.5 921.3L0 923Z" fill="#a0c3f9"></path></svg>