<svg id="visual" viewBox="0 0 350 160" width="350" height="160" xmlns="http://www.w3.org/2000/svg" xmlns:xlink="http://www.w3.org/1999/xlink" version="1.1"><path d="M0 49L5.8 45.3C11.7 41.7 23.3 34.3 35 34.3C46.7 34.3 58.3 41.7 70 39.7C81.7 37.7 93.3 26.3 105 21.3C116.7 16.3 128.3 17.7 140 21.2C151.7 24.7 163.3 30.3 175 32.3C186.7 34.3 198.3 32.7 210 30C221.7 27.3 233.3 23.7 245 22.2C256.7 20.7 268.3 21.3 280 20.3C291.7 19.3 303.3 16.7 315 19C326.7 21.3 338.3 28.7 344.2 32.3L350 36L350 0L344.2 0C338.3 0 326.7 0 315 0C303.3 0 291.7 0 280 0C268.3 0 256.7 0 245 0C233.3 0 221.7 0 210 0C198.3 0 186.7 0 175 0C163.3 0 151.7 0 140 0C128.3 0 116.7 0 105 0C93.3 0 81.7 0 70 0C58.3 0 46.7 0 35 0C23.3 0 11.7 0 5.8 0L0 0Z" fill="#bfbfbf"></path><path d="M0 86L5.8 79.8C11.7 73.7 23.3 61.3 35 58.3C46.7 55.3 58.3 61.7 70 63.3C81.7 65 93.3 62 105 64.2C116.7 66.3 128.3 73.7 140 76.8C151.7 80 163.3 79 175 76C186.7 73 198.3 68 210 62.2C221.7 56.3 233.3 49.7 245 55.7C256.7 61.7 268.3 80.3 280 89C291.7 97.7 303.3 96.3 315 94.7C326.7 93 338.3 91 344.2 90L350 89L350 34L344.2 30.3C338.3 26.7 326.7 19.3 315 17C303.3 14.7 291.7 17.3 280 18.3C268.3 19.3 256.7 18.7 245 20.2C233.3 21.7 221.7 25.3 210 28C198.3 30.7 186.7 32.3 175 30.3C163.3 28.3 151.7 22.7 140 19.2C128.3 15.7 116.7 14.3 105 19.3C93.3 24.3 81.7 35.7 70 37.7C58.3 39.7 46.7 32.3 35 32.3C23.3 32.3 11.7 39.7 5.8 43.3L0 47Z" fill="#c6c6c6"></path><path d="M0 92L5.8 91.5C11.7 91 23.3 90 35 87.7C46.7 85.3 58.3 81.7 70 80C81.7 78.3 93.3 78.7 105 82.3C116.7 86 128.3 93 140 95.5C151.7 98 163.3 96 175 95C186.7 94 198.3 94 210 88.7C221.7 83.3 233.3 72.7 245 76.2C256.7 79.7 268.3 97.3 280 104.2C291.7 111 303.3 107 315 108.3C326.7 109.7 338.3 116.3 344.2 119.7L350 123L350 87L344.2 88C338.3 89 326.7 91 315 92.7C303.3 94.3 291.7 95.7 280 87C268.3 78.3 256.7 59.7 245 53.7C233.3 47.7 221.7 54.3 210 60.2C198.3 66 186.7 71 175 74C163.3 77 151.7 78 140 74.8C128.3 71.7 116.7 64.3 105 62.2C93.3 60 81.7 63 70 61.3C58.3 59.7 46.7 53.3 35 56.3C23.3 59.3 11.7 71.7 5.8 77.8L0 84Z" fill="#cdcdcd"></path><path d="M0 113L5.8 110.8C11.7 108.7 23.3 104.3 35 100.8C46.7 97.3 58.3 94.7 70 96C81.7 97.3 93.3 102.7 105 105.7C116.7 108.7 128.3 109.3 140 108.5C151.7 107.7 163.3 105.3 175 105.5C186.7 105.7 198.3 108.3 210 105.2C221.7 102 233.3 93 245 96.5C256.7 100 268.3 116 280 123.8C291.7 131.7 303.3 131.3 315 134C326.7 136.7 338.3 142.3 344.2 145.2L350 148L350 121L344.2 117.7C338.3 114.3 326.7 107.7 315 106.3C303.3 105 291.7 109 280 102.2C268.3 95.3 256.7 77.7 245 74.2C233.3 70.7 221.7 81.3 210 86.7C198.3 92 186.7 92 175 93C163.3 94 151.7 96 140 93.5C128.3 91 116.7 84 105 80.3C93.3 76.7 81.7 76.3 70 78C58.3 79.7 46.7 83.3 35 85.7C23.3 88 11.7 89 5.8 89.5L0 90Z" fill="#d5d5d5"></path><path d="M0 161L5.8 161C11.7 161 23.3 161 35 161C46.7 161 58.3 161 70 161C81.7 161 93.3 161 105 161C116.7 161 128.3 161 140 161C151.7 161 163.3 161 175 161C186.7 161 198.3 161 210 161C221.7 161 233.3 161 245 161C256.7 161 268.3 161 280 161C291.7 161 303.3 161 315 161C326.7 161 338.3 161 344.2 161L350 161L350 146L344.2 143.2C338.3 140.3 326.7 134.7 315 132C303.3 129.3 291.7 129.7 280 121.8C268.3 114 256.7 98 245 94.5C233.3 91 221.7 100 210 103.2C198.3 106.3 186.7 103.7 175 103.5C163.3 103.3 151.7 105.7 140 106.5C128.3 107.3 116.7 106.7 105 103.7C93.3 100.7 81.7 95.3 70 94C58.3 92.7 46.7 95.3 35 98.8C23.3 102.3 11.7 106.7 5.8 108.8L0 111Z" fill="#dddddd"></path></svg>