<svg id="visual" viewBox="0 0 450 900" width="450" height="900" xmlns="http://www.w3.org/2000/svg" xmlns:xlink="http://www.w3.org/1999/xlink" version="1.1"><path d="M0 648L18.8 648.7C37.7 649.3 75.3 650.7 112.8 643.2C150.3 635.7 187.7 619.3 225.2 605C262.7 590.7 300.3 578.3 337.8 576C375.3 573.7 412.7 581.3 431.3 585.2L450 589L450 901L431.3 901C412.7 901 375.3 901 337.8 901C300.3 901 262.7 901 225.2 901C187.7 901 150.3 901 112.8 901C75.3 901 37.7 901 18.8 901L0 901Z" fill="#4facf7"></path><path d="M0 614L18.8 622.3C37.7 630.7 75.3 647.3 112.8 646C150.3 644.7 187.7 625.3 225.2 631C262.7 636.7 300.3 667.3 337.8 674.7C375.3 682 412.7 666 431.3 658L450 650L450 901L431.3 901C412.7 901 375.3 901 337.8 901C300.3 901 262.7 901 225.2 901C187.7 901 150.3 901 112.8 901C75.3 901 37.7 901 18.8 901L0 901Z" fill="#0592fe"></path><path d="M0 685L18.8 693.3C37.7 701.7 75.3 718.3 112.8 720.3C150.3 722.3 187.7 709.7 225.2 700.7C262.7 691.7 300.3 686.3 337.8 688.8C375.3 691.3 412.7 701.7 431.3 706.8L450 712L450 901L431.3 901C412.7 901 375.3 901 337.8 901C300.3 901 262.7 901 225.2 901C187.7 901 150.3 901 112.8 901C75.3 901 37.7 901 18.8 901L0 901Z" fill="#0073fd"></path><path d="M0 745L18.8 744.8C37.7 744.7 75.3 744.3 112.8 748.3C150.3 752.3 187.7 760.7 225.2 770.5C262.7 780.3 300.3 791.7 337.8 789.8C375.3 788 412.7 773 431.3 765.5L450 758L450 901L431.3 901C412.7 901 375.3 901 337.8 901C300.3 901 262.7 901 225.2 901C187.7 901 150.3 901 112.8 901C75.3 901 37.7 901 18.8 901L0 901Z" fill="#0050f5"></path><path d="M0 846L18.8 841C37.7 836 75.3 826 112.8 817.7C150.3 809.3 187.7 802.7 225.2 799.8C262.7 797 300.3 798 337.8 798.2C375.3 798.3 412.7 797.7 431.3 797.3L450 797L450 901L431.3 901C412.7 901 375.3 901 337.8 901C300.3 901 262.7 901 225.2 901C187.7 901 150.3 901 112.8 901C75.3 901 37.7 901 18.8 901L0 901Z" fill="#0c1ee6"></path></svg>